<svg width="24" height="25" viewBox="0 0 24 25" fill="none" xmlns="http://www.w3.org/2000/svg">
<mask id="mask0" mask-type="alpha" maskUnits="userSpaceOnUse" x="4" y="6" width="17" height="13">
<path d="M19.8154 8.39858L9.96923 18.4086C9.84615 18.5292 9.72308 18.5895 9.53846 18.5895C9.35385 18.5895 9.16923 18.5292 9.10769 18.4086L4.30769 13.3433L4.18462 13.2227C4.06154 13.1021 4 12.9212 4 12.8006C4 12.68 4.06154 12.4991 4.18462 12.3785L5.04615 11.5343C5.29231 11.2931 5.66154 11.2931 5.90769 11.5343L5.96923 11.5946L9.35385 15.1524C9.47692 15.273 9.66154 15.273 9.78462 15.1524L18.0308 6.77044H18.0923C18.3385 6.52924 18.7077 6.52924 18.9538 6.77044L19.8154 7.61466C20.0615 7.79557 20.0615 8.15738 19.8154 8.39858Z" fill="black"/>
</mask>
<g mask="url(#mask0)">
<rect y="0.589539" width="24" height="24" fill="#B0BEC5"/>
</g>
</svg>
