<svg width="24" height="25" viewBox="0 0 24 25" fill="none" xmlns="http://www.w3.org/2000/svg">
<mask id="mask0" mask-type="alpha" maskUnits="userSpaceOnUse" x="4" y="4" width="16" height="17">
<path d="M12 4.58954C7.584 4.58954 4 8.17354 4 12.5895C4 17.0055 7.584 20.5895 12 20.5895C16.416 20.5895 20 17.0055 20 12.5895C20 8.17354 16.416 4.58954 12 4.58954ZM12 18.9895C8.464 18.9895 5.6 16.1255 5.6 12.5895C5.6 11.1095 6.104 9.74954 6.952 8.66954L15.92 17.6375C14.84 18.4855 13.48 18.9895 12 18.9895ZM17.048 16.5095L8.08 7.54154C9.16 6.69354 10.52 6.18954 12 6.18954C15.536 6.18954 18.4 9.05354 18.4 12.5895C18.4 14.0695 17.896 15.4295 17.048 16.5095Z" fill="black"/>
</mask>
<g mask="url(#mask0)">
<rect y="0.589539" width="24" height="24" fill="#B0BEC5"/>
</g>
</svg>
