<svg width="24" height="24" viewBox="0 0 24 24" fill="none" xmlns="http://www.w3.org/2000/svg">
<mask id="mask0" mask-type="alpha" maskUnits="userSpaceOnUse" x="2" y="2" width="20" height="21">
<path d="M17.7383 9.61488V2.62065C17.7383 2.2785 17.4648 2 17.1289 2H12.7852V8.23831C12.7852 8.73563 12.2422 9.02606 11.8398 8.7595L9.86719 7.44261L7.89453 8.7595C7.48828 9.03004 6.94922 8.73165 6.94922 8.23831V2H2.60938C2.27344 2 2 2.2785 2 2.62065V15.9646C2 16.3067 2.27344 16.5852 2.60938 16.5852H11.5938V10.8562C11.5938 10.1719 12.1406 9.61488 12.8125 9.61488H17.7383V9.61488Z" fill="black"/>
<path d="M10.2031 6.17744L11.5664 7.08852V2H8.17188V7.08852L9.53516 6.17744C9.73828 6.04217 10 6.04217 10.2031 6.17744Z" fill="black"/>
<path d="M21.3906 10.8604H13.4219C13.0859 10.8604 12.8125 11.1388 12.8125 11.481V21.3795C12.8125 21.7217 13.0859 22.0002 13.4219 22.0002H21.3867C21.7226 22.0002 21.9961 21.7217 21.9961 21.3795V11.481C22 11.1388 21.7265 10.8604 21.3906 10.8604ZM16.9453 16.9793H18.0156C18.832 16.9793 19.4961 17.6557 19.4961 18.4872C19.4961 19.2192 18.9805 19.8319 18.2969 19.9672V20.5401C18.2969 20.8822 18.0234 21.1607 17.6875 21.1607C17.3516 21.1607 17.0781 20.8822 17.0781 20.5401V19.991H16.0781C15.7422 19.991 15.4687 19.7126 15.4687 19.3704C15.4687 19.0282 15.7422 18.7497 16.0781 18.7497H18.0156C18.1601 18.7497 18.2773 18.6304 18.2773 18.4872C18.2773 18.34 18.1601 18.2206 18.0156 18.2206H16.9453C16.0703 18.2206 15.3945 17.4488 15.4687 16.5854C15.5312 15.8136 16.168 15.2049 16.9453 15.2049H17.0781V14.6598C17.0781 14.3177 17.3516 14.0392 17.6875 14.0392C18.0234 14.0392 18.2969 14.3137 18.2969 14.6598V15.2089C18.9375 15.2089 18.918 15.2089 18.957 15.2128C19.2617 15.2487 19.4961 15.5112 19.4961 15.8295C19.4961 16.1478 19.2617 16.4104 18.957 16.4462C18.9062 16.4541 19.043 16.4502 16.9453 16.4502C16.8047 16.4502 16.6836 16.5695 16.6836 16.7167C16.6836 16.86 16.8008 16.9793 16.9453 16.9793ZM20.168 13.0923H14.793C14.457 13.0923 14.1836 12.8138 14.1836 12.4717C14.1836 12.1295 14.457 11.851 14.793 11.851H20.168C20.5039 11.851 20.7773 12.1295 20.7773 12.4717C20.7773 12.8138 20.5039 13.0923 20.168 13.0923Z" fill="black"/>
</mask>
<g mask="url(#mask0)">
<rect width="24" height="24" fill="url(#paint0_linear)"/>
</g>
<defs>
<linearGradient id="paint0_linear" x1="12" y1="0" x2="12" y2="34.8" gradientUnits="userSpaceOnUse">
<stop stop-color="#00C9E8"/>
<stop offset="1" stop-color="#0099CC"/>
</linearGradient>
</defs>
</svg>
