<svg width="37" height="35" viewBox="0 0 37 35" fill="none" xmlns="http://www.w3.org/2000/svg">
<g clip-path="url(#clip0)">
<path d="M28.8647 4.27626L11.3588 12.5853V17.9187L8.30588 16.5467V11.2133L25.8118 2.90429L19.9294 0.267267C19.1412 -0.0831483 17.8529 -0.0831483 17.0647 0.267267L2.59412 6.76481C1.44118 7.28152 0.5 8.74851 0.5 10.0255L0.535294 25.2596C0.541176 26.5484 1.5 28.0154 2.67647 28.5203L17.1176 34.7505C17.8765 35.0772 19.1235 35.0772 19.8882 34.7505L34.3235 28.5203C35.4941 28.0154 36.4588 26.5484 36.4588 25.2596L36.4941 10.0255C36.5 8.74851 35.5588 7.28746 34.4 6.76481L28.8647 4.27626ZM33.2294 16.4695L32.3824 16.8675L32.3647 22.8899C32.3647 23.1512 32.1353 23.466 31.8529 23.5907L30.5824 24.143C30.3059 24.2618 30.0765 24.149 30.0765 23.8936L30.0706 17.9543L29.2471 18.3404C28.8588 18.5186 28.6176 18.2394 28.8118 17.8296L30.7706 13.6484C30.9706 13.2267 31.4647 12.9832 31.6647 13.2148L33.6765 15.5311C33.8882 15.7568 33.6353 16.2795 33.2294 16.4695ZM24.9471 26.1386C24.9471 26.3881 24.7412 26.685 24.4765 26.8038L23.3 27.3146C23.0412 27.4274 22.8294 27.3146 22.8294 27.0652L22.7588 21.3754L22 21.7317C21.6412 21.898 21.4118 21.6248 21.5882 21.2388L23.3706 17.2654C23.5529 16.8675 24.0118 16.6418 24.2 16.8615L26.1 19.1066C26.2882 19.3323 26.0588 19.8312 25.6824 20.0034L24.9 20.3716L24.9471 26.1386ZM34.6294 24.4875C34.6294 24.6182 34.5118 24.7785 34.3647 24.8379L20.9294 30.5337C20.8059 30.5871 20.7 30.5337 20.7 30.409L20.6882 29.7438C20.6882 29.619 20.7882 29.4765 20.9118 29.423L34.3765 23.6382C34.5235 23.5788 34.6353 23.6323 34.6353 23.7629L34.6294 24.4875Z" fill="url(#paint0_linear)"/>
</g>
<defs>
<linearGradient id="paint0_linear" x1="18.4971" y1="0.00445557" x2="18.4971" y2="50.7415" gradientUnits="userSpaceOnUse">
<stop stop-color="#00C9E8"/>
<stop offset="1" stop-color="#0099CC"/>
</linearGradient>
<clipPath id="clip0">
<rect width="36" height="35" fill="white" transform="translate(0.5)"/>
</clipPath>
</defs>
</svg>
