<svg width="77" height="81" viewBox="0 0 77 81" fill="none" xmlns="http://www.w3.org/2000/svg">
<path d="M52.2268 40.3654H32.0125C30.959 40.3654 30.0358 39.6575 29.7581 38.6365C29.4803 37.6156 29.9167 36.5342 30.8235 35.9956C39.6309 30.7668 44.2057 24.6675 44.8091 17.349C45.0196 14.8092 47.2711 12.7804 49.827 12.814C52.4351 12.8559 54.8784 13.9062 56.7083 15.7718C58.5397 17.6392 59.549 20.112 59.5499 22.7345C59.5499 22.7348 59.5499 22.7351 59.5499 22.7354V23.5243C59.5499 29.9306 57.6614 34.0153 54.1767 39.3118C53.7436 39.9698 53.0116 40.3654 52.2268 40.3654Z" fill="#FFC380"/>
<path d="M76.9999 43.0267C76.9999 38.9698 73.7149 35.6692 69.6769 35.6692H32.0122C31.5937 35.6692 31.1828 35.782 30.8228 35.9961C28.1789 37.5667 25.5093 38.8597 23.3642 39.8989C22.616 40.2612 21.9094 40.6036 21.2666 40.9264C20.4749 41.3242 19.9747 42.1372 19.9747 43.0267V73.0828C19.9747 73.9723 20.4749 74.7853 21.2666 75.1831C30.71 79.9264 38.5599 80.5 47.7138 80.5C49.1313 80.5 50.581 80.4863 52.0718 80.4722C53.7206 80.4566 55.4252 80.4403 57.2124 80.4403H64.6009C68.6387 80.4403 71.9238 77.1399 71.9238 73.0828C71.9238 71.7188 71.5526 70.4403 70.906 69.3439C73.01 68.0498 74.4168 65.7191 74.4168 63.0641C74.4168 61.7 74.0456 60.4216 73.3989 59.3251C75.5029 58.0311 76.9097 55.7003 76.9097 53.0453C76.9097 51.1372 76.183 49.3964 74.9931 48.0878C76.2889 46.7158 76.9999 44.9262 76.9999 43.0267Z" fill="#FFCF99"/>
<path d="M72.1394 22.5495H67.1535C65.8629 22.5495 64.8164 21.4981 64.8164 20.2014C64.8164 18.9047 65.8629 17.8533 67.1535 17.8533H72.1394C73.43 17.8533 74.4765 18.9047 74.4765 20.2014C74.4765 21.4981 73.4302 22.5495 72.1394 22.5495Z" fill="#29CCB1"/>
<path d="M37.2379 22.5495H32.252C30.9614 22.5495 29.9149 21.4981 29.9149 20.2014C29.9149 18.9047 30.9614 17.8533 32.252 17.8533H37.2379C38.5285 17.8533 39.575 18.9047 39.575 20.2014C39.575 21.4981 38.5288 22.5495 37.2379 22.5495Z" fill="#29CCB1"/>
<path d="M44.7195 9.53527C43.9116 9.53527 43.1262 9.11418 42.6934 8.3609L40.2005 4.02261C39.5551 2.89964 39.9381 1.46339 41.0558 0.815111C42.1735 0.166673 43.603 0.551517 44.2483 1.67449L46.7412 6.01277C47.3866 7.13574 47.0035 8.57199 45.8859 9.22027C45.5179 9.43387 45.1159 9.53527 44.7195 9.53527Z" fill="#29CCB1"/>
<path d="M59.672 9.53529C59.2755 9.53529 58.8736 9.43389 58.5056 9.22029C57.3879 8.57185 57.0049 7.13576 57.6503 6.01279L60.1432 1.6745C60.7885 0.551534 62.218 0.166377 63.3357 0.815128C64.4534 1.46357 64.8364 2.89966 64.191 4.02263L61.6981 8.36092C61.2656 9.1142 60.4798 9.53529 59.672 9.53529Z" fill="#29CCB1"/>
<path d="M14.6459 68.1031V80.47H9.97168V68.1031C9.97168 66.807 11.0188 65.755 12.3088 65.755C13.5988 65.755 14.6459 66.807 14.6459 68.1031Z" fill="#73C3FF"/>
<path d="M72.1394 22.5495H67.1535C65.8629 22.5495 64.8164 21.4981 64.8164 20.2014C64.8164 18.9047 65.8629 17.8533 67.1535 17.8533H72.1394C73.43 17.8533 74.4765 18.9047 74.4765 20.2014C74.4765 21.4981 73.4302 22.5495 72.1394 22.5495Z" fill="#56CCF2"/>
<path d="M37.2379 22.5495H32.252C30.9614 22.5495 29.9149 21.4981 29.9149 20.2014C29.9149 18.9047 30.9614 17.8533 32.252 17.8533H37.2379C38.5285 17.8533 39.575 18.9047 39.575 20.2014C39.575 21.4981 38.5288 22.5495 37.2379 22.5495Z" fill="#56CCF2"/>
<path d="M44.7195 9.53527C43.9116 9.53527 43.1262 9.11418 42.6934 8.3609L40.2005 4.02261C39.5551 2.89964 39.9381 1.46339 41.0558 0.815111C42.1735 0.166673 43.603 0.551517 44.2483 1.67449L46.7412 6.01277C47.3866 7.13574 47.0035 8.57199 45.8859 9.22027C45.5179 9.43387 45.1159 9.53527 44.7195 9.53527Z" fill="#56CCF2"/>
<path d="M59.672 9.53529C59.2755 9.53529 58.8736 9.43389 58.5056 9.22029C57.3879 8.57185 57.0049 7.13576 57.6503 6.01279L60.1432 1.6745C60.7885 0.551534 62.218 0.166377 63.3357 0.815128C64.4534 1.46357 64.8364 2.89966 64.191 4.02263L61.6981 8.36092C61.2656 9.1142 60.4798 9.53529 59.672 9.53529Z" fill="#56CCF2"/>
<path d="M14.6459 68.1031V80.47H9.97168V68.1031C9.97168 66.807 11.0188 65.755 12.3088 65.755C13.5988 65.755 14.6459 66.807 14.6459 68.1031Z" fill="#73C3FF"/>
<path d="M22.2804 35.6692H2.3371C1.04709 35.6692 0 36.7212 0 38.0173V78.092C0 79.3897 1.04709 80.4402 2.3371 80.4699H17.2945C20.1598 80.4402 22.6449 78.7792 23.8463 76.3653C24.3402 75.3775 24.6175 74.2614 24.6175 73.0827V38.0173C24.6175 36.7211 23.5704 35.6692 22.2804 35.6692Z" fill="#00C9E8"/>
<path d="M14.6459 67.9465V80.47H9.97168V67.9465C9.97168 66.6504 11.0188 65.5984 12.3088 65.5984C13.5988 65.5984 14.6459 66.6504 14.6459 67.9465Z" fill="#0099CC"/>
</svg>
