<svg width="80" height="68" viewBox="0 0 80 68" fill="none" xmlns="http://www.w3.org/2000/svg">
<path d="M78.4049 16.0115L41.6441 0.854637C40.3894 0.341423 38.965 0.341423 37.7103 0.854637L1.59387 16.0115C0.644331 16.4221 0 17.3801 0 18.4065V23.8466C0 25.2836 1.15301 26.4469 2.57732 26.4469H4.51031C4.88335 26.4469 5.15464 26.7548 5.15464 27.0969V61.6191C5.15464 64.8694 7.76588 67.4697 10.9536 67.4697H12.6492V36.1637H67.3495V67.4697H69.0451C72.2668 67.4697 74.8441 64.8352 74.8441 61.6191V27.0969C74.8441 26.7206 75.1493 26.4469 75.4884 26.4469H77.4214C78.8457 26.4469 79.9987 25.2836 79.9987 23.8466V18.4407C80.0326 17.3801 79.3883 16.4221 78.4049 16.0115ZM25.8071 26.4469H12.9205V20.5962H25.841L25.8071 26.4469ZM46.4596 26.4469H33.573V20.5962H46.4596V26.4469ZM67.1121 26.4469H54.1916V20.5962H67.1121V26.4469ZM29.1644 54.4341H25.5019V59.532H23.7724V54.4341H20.076C18.7534 54.4341 17.6682 55.529 17.6682 56.8633V65.0063C17.6682 66.3407 18.7534 67.4355 20.076 67.4355H29.1644C30.487 67.4355 31.5722 66.3407 31.5722 65.0063V56.8633C31.6061 55.529 30.5209 54.4341 29.1644 54.4341ZM44.5605 54.4341H40.898V59.532H39.1685V54.4341H35.4721C34.1495 54.4341 33.0643 55.529 33.0643 56.8633V65.0063C33.0643 66.3407 34.1495 67.4355 35.4721 67.4355H44.5605C45.8831 67.4355 46.9683 66.3407 46.9683 65.0063V56.8633C46.9683 55.529 45.8831 54.4341 44.5605 54.4341ZM60.228 54.4341H56.5654V59.532H54.8359V54.4341H51.1395C49.8169 54.4341 48.7317 55.529 48.7317 56.8633V65.0063C48.7317 66.3407 49.8169 67.4355 51.1395 67.4355H60.228C61.5505 67.4355 62.6357 66.3407 62.6357 65.0063V56.8633C62.6357 55.529 61.5844 54.4341 60.228 54.4341ZM36.8964 39.7562H33.2339V44.8541H31.5044V39.7562H27.808C26.4854 39.7562 25.4002 40.8511 25.4002 42.1854V50.3284C25.4002 51.6628 26.4854 52.7576 27.808 52.7576H36.8964C38.219 52.7576 39.3042 51.6628 39.3042 50.3284V42.1854C39.3042 40.8511 38.219 39.7562 36.8964 39.7562ZM52.6655 39.7562H49.003V44.8541H47.2735V39.7562H43.5771C42.2545 39.7562 41.1693 40.8511 41.1693 42.1854V50.3284C41.1693 51.6628 42.2545 52.7576 43.5771 52.7576H52.6655C53.9881 52.7576 55.0733 51.6628 55.0733 50.3284V42.1854C55.0733 40.8511 53.9881 39.7562 52.6655 39.7562Z" fill="#FFCC66"/>
</svg>
