<svg width="24" height="24" viewBox="0 0 24 24" fill="none" xmlns="http://www.w3.org/2000/svg">
<mask id="mask0" mask-type="alpha" maskUnits="userSpaceOnUse" x="2" y="2" width="20" height="20">
<path d="M4.49997 5.12506V2.625C4.49997 2.27951 4.77948 2 5.12506 2C5.47048 2 5.74998 2.27951 5.74998 2.625V5.12506C5.74998 5.47048 5.47048 5.74998 5.12506 5.74998C4.77948 5.75002 4.49997 5.47048 4.49997 5.12506ZM15.1251 5.75002C15.4704 5.75002 15.7501 5.47052 15.7501 5.1251V2.625C15.7501 2.27951 15.4704 2 15.1251 2C14.7796 2 14.4999 2.27951 14.4999 2.625V5.12506C14.4999 5.47048 14.7796 5.75002 15.1251 5.75002ZM21.9999 16.9998C21.9999 19.7614 19.7612 22 16.9999 22C14.2388 22 12 19.7614 12 16.9998C12 14.2387 14.2388 12 16.9999 12C19.7612 12 21.9999 14.2387 21.9999 16.9998ZM20.7501 16.9998C20.7501 14.9323 19.0679 13.2499 17 13.2499C14.9322 13.2499 13.25 14.9322 13.25 16.9998C13.25 19.0678 14.9322 20.75 17 20.75C19.0679 20.75 20.7501 19.0678 20.7501 16.9998ZM7.00003 9.50001H4.49997V12H7.00003V9.50001ZM4.49997 15.75H7.00003V13.2499H4.49997V15.75ZM8.24996 12H10.7501V9.50001H8.24996V12ZM8.24996 15.75H10.7501V13.2499H8.24996V15.75ZM3.25005 16.8756V8.24996H17V10.75H18.25V5.87459C18.25 5.11529 17.6444 4.49997 16.8963 4.49997H16.375V5.1251C16.375 5.8135 15.8146 6.37507 15.1251 6.37507C14.4355 6.37507 13.8751 5.8135 13.8751 5.1251V4.49997H6.37494V5.1251C6.37494 5.8135 5.81465 6.37507 5.1251 6.37507C4.43538 6.37507 3.87505 5.8135 3.87505 5.1251V4.49997H3.35437C2.60617 4.49997 2 5.11529 2 5.87459V16.8756C2 17.6324 2.60617 18.2501 3.35437 18.2501H10.7501V16.9999H3.35437C3.29774 16.9998 3.25005 16.9414 3.25005 16.8756ZM14.4999 12V9.50001H12V12H14.4999ZM18.875 16.9998H16.9999V15.1248C16.9999 14.7795 16.7204 14.5 16.3749 14.5C16.0294 14.5 15.7501 14.7795 15.7501 15.1248V17.6251C15.7501 17.9704 16.0294 18.2501 16.3749 18.2501H18.875C19.2205 18.2501 19.5 17.9704 19.5 17.6251C19.5 17.2796 19.2205 16.9998 18.875 16.9998Z" fill="black"/>
</mask>
<g mask="url(#mask0)">
<rect width="24" height="24" fill="#B0BEC5"/>
</g>
</svg>
