<svg width="24" height="25" viewBox="0 0 24 25" fill="none" xmlns="http://www.w3.org/2000/svg">
<mask id="mask0" mask-type="alpha" maskUnits="userSpaceOnUse" x="2" y="2" width="20" height="21">
<path d="M4.49997 5.7146V3.21454C4.49997 2.86904 4.77948 2.58954 5.12506 2.58954C5.47048 2.58954 5.74998 2.86904 5.74998 3.21454V5.7146C5.74998 6.06001 5.47048 6.33952 5.12506 6.33952C4.77948 6.33956 4.49997 6.06001 4.49997 5.7146ZM15.1251 6.33956C15.4704 6.33956 15.7501 6.06006 15.7501 5.71464V3.21454C15.7501 2.86904 15.4704 2.58954 15.1251 2.58954C14.7796 2.58954 14.4999 2.86904 14.4999 3.21454V5.7146C14.4999 6.06001 14.7796 6.33956 15.1251 6.33956ZM21.9999 17.5894C21.9999 20.3509 19.7612 22.5895 16.9999 22.5895C14.2388 22.5895 12 20.3509 12 17.5894C12 14.8283 14.2388 12.5895 16.9999 12.5895C19.7612 12.5895 21.9999 14.8282 21.9999 17.5894ZM20.7501 17.5894C20.7501 15.5218 19.0679 13.8394 17 13.8394C14.9322 13.8394 13.25 15.5218 13.25 17.5894C13.25 19.6574 14.9322 21.3395 17 21.3395C19.0679 21.3395 20.7501 19.6574 20.7501 17.5894ZM7.00003 10.0895H4.49997V12.5895H7.00003V10.0895ZM4.49997 16.3395H7.00003V13.8394H4.49997V16.3395ZM8.24996 12.5895H10.7501V10.0895H8.24996V12.5895ZM8.24996 16.3395H10.7501V13.8394H8.24996V16.3395ZM3.25005 17.4651V8.8395H17V11.3396H18.25V6.46413C18.25 5.70483 17.6444 5.08951 16.8963 5.08951H16.375V5.71464C16.375 6.40304 15.8146 6.96461 15.1251 6.96461C14.4355 6.96461 13.8751 6.40304 13.8751 5.71464V5.08951H6.37494V5.71464C6.37494 6.40304 5.81465 6.96461 5.1251 6.96461C4.43538 6.96461 3.87505 6.40304 3.87505 5.71464V5.08951H3.35437C2.60617 5.08951 2 5.70483 2 6.46413V17.4651C2 18.2219 2.60617 18.8396 3.35437 18.8396H10.7501V17.5894H3.35437C3.29774 17.5894 3.25005 17.5309 3.25005 17.4651ZM14.4999 12.5895V10.0895H12V12.5895H14.4999ZM18.875 17.5894H16.9999V15.7143C16.9999 15.369 16.7204 15.0895 16.3749 15.0895C16.0294 15.0895 15.7501 15.369 15.7501 15.7143V18.2146C15.7501 18.5599 16.0294 18.8396 16.3749 18.8396H18.875C19.2205 18.8396 19.5 18.5599 19.5 18.2146C19.5 17.8691 19.2205 17.5894 18.875 17.5894Z" fill="black"/>
</mask>
<g mask="url(#mask0)">
<rect y="0.589539" width="24" height="24" fill="url(#paint0_linear)"/>
</g>
<defs>
<linearGradient id="paint0_linear" x1="12" y1="0.589539" x2="12" y2="35.3895" gradientUnits="userSpaceOnUse">
<stop stop-color="#00C9E8"/>
<stop offset="1" stop-color="#0099CC"/>
</linearGradient>
</defs>
</svg>
