<svg width="68" height="69" viewBox="0 0 68 69" fill="none" xmlns="http://www.w3.org/2000/svg">
<g clip-path="url(#clip0)">
<path d="M68 33.246C68 14.4629 52.7743 0.5 33.9911 0.5C15.2257 0.5 0 14.4629 0 33.246C0 52.0292 15.2257 68.5 33.9911 68.5C52.7743 68.5 68 52.0114 68 33.246Z" fill="#FF9999"/>
<path d="M66.5061 29.4218C64.425 45.6792 50.6756 59.144 34.0091 59.144C17.3426 59.144 3.5754 45.6792 1.49431 29.4218C1.31644 30.7914 1.20972 32.1966 1.20972 33.6374C1.20972 42.691 4.89164 51.1932 10.8325 57.4365C16.7734 63.6975 24.9733 67.6462 33.9913 67.6462C43.0094 67.6462 51.2092 63.6797 57.1501 57.4365C63.091 51.1932 66.7729 42.6732 66.7729 33.6374C66.7907 32.1788 66.684 30.7914 66.5061 29.4218Z" fill="#EE9295"/>
<path d="M42.8312 37.7284C41.3015 34.3844 37.922 32.0721 34.0088 32.0721C30.1668 32.0721 26.8584 34.2955 25.2753 37.5149C24.973 38.1197 25.222 38.849 25.8267 39.1336C26.4315 39.4359 27.1608 39.1869 27.4454 38.5822C28.6371 36.1631 31.1095 34.4911 33.991 34.4911C36.9259 34.4911 39.4694 36.2343 40.6078 38.7422C40.8924 39.347 41.6039 39.6138 42.2264 39.347C42.849 39.0624 43.1158 38.3331 42.8312 37.7284Z" fill="#54596E"/>
<path d="M45.1259 18.0381L42.689 21.6844C42.44 22.0579 42.4222 22.5382 42.6357 22.9295C42.8491 23.3208 43.2582 23.5699 43.7029 23.5699H49.7683C50.4442 23.5699 50.9778 23.0185 50.9778 22.3603C50.9778 21.6844 50.4264 21.1508 49.7683 21.1508H45.9619L47.1358 19.3899C47.5093 18.8385 47.3493 18.0736 46.7979 17.7001C46.2642 17.3266 45.4994 17.4867 45.1259 18.0381Z" fill="#54596E"/>
<path d="M20.8464 19.3899L22.0203 21.1508H18.2139C17.538 21.1508 17.0044 21.7022 17.0044 22.3603C17.0044 23.0362 17.5558 23.5699 18.2139 23.5699H24.2793C24.724 23.5699 25.1331 23.3208 25.3465 22.9295C25.56 22.5382 25.5422 22.0579 25.2932 21.6844L22.8563 18.0381C22.4828 17.4867 21.7358 17.3266 21.1666 17.7001C20.633 18.0736 20.4729 18.8207 20.8464 19.3899Z" fill="#54596E"/>
<path d="M33.9912 44.2206C35.337 44.2206 36.428 43.1296 36.428 41.7838C36.428 40.4379 35.337 39.3469 33.9912 39.3469C32.6453 39.3469 31.5543 40.4379 31.5543 41.7838C31.5543 43.1296 32.6453 44.2206 33.9912 44.2206Z" fill="#FF7D7D"/>
</g>
<defs>
<clipPath id="clip0">
<rect width="68" height="68" fill="white" transform="translate(0 0.5)"/>
</clipPath>
</defs>
</svg>
