<svg width="131" height="68" viewBox="0 0 131 68" fill="none" xmlns="http://www.w3.org/2000/svg">
<g clip-path="url(#clip0)">
<path d="M2.90697 43.6838H25.6185V30.2475C25.6185 29.5212 26.1636 28.7949 27.072 28.7949H62.6837C63.4104 28.7949 64.1372 29.3396 64.1372 30.2475V65.8356C64.1372 66.5618 63.5921 67.2881 62.6837 67.2881H27.072C26.3453 67.2881 25.6185 66.7434 25.6185 65.8356V61.1147H12.1733C10.538 61.1147 9.2662 59.8437 9.2662 58.2095C9.2662 56.5754 10.538 55.3044 12.1733 55.3044H25.6185H34.158C35.7932 55.3044 37.0651 54.0334 37.0651 52.3993C37.0651 50.7651 35.7932 49.4941 34.158 49.4941H25.6185H2.90697C1.27174 49.4941 -9.85231e-05 48.2231 -9.85231e-05 46.589C-9.85231e-05 45.1364 1.27174 43.6838 2.90697 43.6838Z" fill="#FFCC66"/>
<path d="M4.72379 55.486C6.35902 55.486 7.63086 56.757 7.63086 58.3911V58.5727C7.63086 60.2068 6.35902 61.4778 4.72379 61.4778C3.08855 61.4778 1.81671 60.2068 1.81671 58.5727V58.3911C1.9984 56.757 3.27025 55.486 4.72379 55.486Z" fill="#FFCC66"/>
<path d="M58.5047 67.2881V28.9764H62.6837C63.4104 28.9764 64.1372 29.5212 64.1372 30.429V66.0171C64.1372 66.7434 63.5921 67.4697 62.6837 67.4697H58.5047V67.2881Z" fill="#EAAA5E"/>
<path d="M47.2398 36.4209L46.8765 36.784L46.5131 37.3287L46.3314 36.784L45.968 36.4209L45.7863 36.784L45.4229 37.3287L45.2412 36.784L44.8778 36.4209L44.6961 36.784L44.3328 37.3287L44.1511 36.784L43.7877 36.4209L43.606 36.784L43.2426 37.3287L42.8792 36.784L42.6975 36.4209L42.3341 36.784L42.1525 37.3287V28.9764H47.7849V37.3287L47.4215 36.784L47.2398 36.4209Z" fill="#DDAC57"/>
<path d="M128.638 0.469727H66.4993C65.2275 0.469727 64.1373 1.55916 64.1373 2.83016V64.9277C64.1373 66.1987 65.2275 67.2881 66.4993 67.2881H128.638C129.91 67.2881 131 66.1987 131 64.9277V2.83016C131 1.55916 129.91 0.469727 128.638 0.469727Z" fill="#FFCC66"/>
<path d="M121.37 67.2881V0.469727H128.638C129.91 0.469727 131 1.55916 131 2.83016V64.9277C131 66.1987 129.91 67.2881 128.638 67.2881H121.37Z" fill="#EAAA5E"/>
<path d="M101.566 13.3613L101.021 14.2692L100.476 15.177L100.112 14.2692L99.5673 13.3613L99.0222 14.2692L98.6588 15.177L98.1138 14.2692L97.5687 13.3613L97.0236 14.2692L96.6602 15.177L96.1151 14.2692L95.5701 13.3613L95.2067 14.2692L94.6616 15.177L94.1165 14.2692L93.7531 13.3613L93.2081 14.2692L92.663 15.177V0.469727H102.474V15.177L101.929 14.2692L101.566 13.3613Z" fill="#DDAC57"/>
</g>
<defs>
<clipPath id="clip0">
<rect width="131" height="67" fill="white" transform="matrix(-1 0 0 1 131 0.469727)"/>
</clipPath>
</defs>
</svg>
