<svg width="25" height="24" viewBox="0 0 25 24" fill="none" xmlns="http://www.w3.org/2000/svg">
<mask id="mask0" mask-type="alpha" maskUnits="userSpaceOnUse" x="8" y="3" width="9" height="18">
<path d="M16.2571 19.0484L15.998 20.0806C15.2368 20.371 14.6377 20.6129 14.1842 20.7581C13.7308 20.9194 13.2126 21 12.6134 21C11.6903 21 10.9777 20.7742 10.4757 20.3387C9.97368 19.8871 9.71457 19.3226 9.71457 18.6452C9.71457 18.3871 9.73077 18.1129 9.77935 17.8226C9.81174 17.5323 9.87652 17.2258 9.95749 16.871L10.8968 13.5323C10.9777 13.2097 11.0587 12.9032 11.1073 12.629C11.1721 12.3387 11.1883 12.0806 11.1883 11.8548C11.1883 11.4355 11.1073 11.129 10.9291 10.9677C10.751 10.8065 10.4109 10.7097 9.90891 10.7097C9.66599 10.7097 9.40688 10.7419 9.16397 10.8226C8.90486 10.9032 8.69433 10.9677 8.5 11.0323L8.75911 10C9.37449 9.74194 9.97368 9.53226 10.5405 9.35484C11.1073 9.17742 11.6417 9.08065 12.1437 9.08065C13.0506 9.08065 13.7632 9.30645 14.249 9.74194C14.7348 10.1774 14.9939 10.7419 14.9939 11.4516C14.9939 11.5968 14.9777 11.8548 14.9453 12.2097C14.913 12.5806 14.8482 12.9032 14.751 13.2097L13.8279 16.5484C13.747 16.8226 13.6822 17.1129 13.6174 17.4677C13.5526 17.8065 13.5202 18.0645 13.5202 18.2419C13.5202 18.6774 13.6174 18.9839 13.8117 19.1452C14.0061 19.3065 14.3623 19.3871 14.8482 19.3871C15.0749 19.3871 15.334 19.3387 15.6255 19.2742C15.917 19.1774 16.1275 19.1129 16.2571 19.0484ZM16.5 5.09677C16.5 5.67742 16.2733 6.17742 15.836 6.58065C15.3988 6.98387 14.8644 7.19355 14.249 7.19355C13.6336 7.19355 13.0992 6.98387 12.6457 6.58065C12.2085 6.17742 11.9818 5.67742 11.9818 5.09677C11.9818 4.51613 12.2085 4.01613 12.6457 3.6129C13.083 3.20968 13.6174 3 14.249 3C14.8644 3 15.3988 3.20968 15.836 3.6129C16.2733 4.03226 16.5 4.51613 16.5 5.09677Z" fill="black"/>
</mask>
<g mask="url(#mask0)">
<rect x="0.5" width="24" height="24" fill="url(#paint0_linear)"/>
</g>
<defs>
<linearGradient id="paint0_linear" x1="12.5" y1="0" x2="12.5" y2="34.8" gradientUnits="userSpaceOnUse">
<stop stop-color="#00C9E8"/>
<stop offset="1" stop-color="#0099CC"/>
</linearGradient>
</defs>
</svg>
