<svg width="24" height="25" viewBox="0 0 24 25" fill="none" xmlns="http://www.w3.org/2000/svg">
<mask id="mask0" mask-type="alpha" maskUnits="userSpaceOnUse" x="5" y="5" width="14" height="15">
<path d="M18.6111 5.5L18.4867 5.52333L14.3333 7.13333L9.66667 5.5L5.28 6.97778C5.11667 7.03222 5 7.17222 5 7.35111V19.1111C5 19.3289 5.17111 19.5 5.38889 19.5L5.51333 19.4767L9.66667 17.8667L14.3333 19.5L18.72 18.0222C18.8833 17.9678 19 17.8278 19 17.6489V5.88889C19 5.67111 18.8289 5.5 18.6111 5.5ZM14.3333 17.9444L9.66667 16.3033V7.05556L14.3333 8.69667V17.9444Z" fill="black"/>
</mask>
<g mask="url(#mask0)">
<rect y="0.5" width="24" height="24" fill="url(#paint0_linear)"/>
</g>
<defs>
<linearGradient id="paint0_linear" x1="12" y1="0.5" x2="12" y2="35.3" gradientUnits="userSpaceOnUse">
<stop stop-color="#00C9E8"/>
<stop offset="1" stop-color="#0099CC"/>
</linearGradient>
</defs>
</svg>
