<svg width="57" height="56" viewBox="0 0 57 56" fill="none" xmlns="http://www.w3.org/2000/svg">
<g clip-path="url(#clip0)">
<g clip-path="url(#clip1)">
<path d="M13.7942 1.43214H15.6922V28.9537H13.7942V1.43214Z" fill="#DEDEDE"/>
<path d="M9.99816 49.832C9.99213 50.6342 10.4903 51.3533 11.2433 51.6291C11.9958 51.9048 12.841 51.6777 13.3545 51.0619C13.8674 50.446 13.9383 49.5739 13.5315 48.883H17.505C17.897 51.1207 16.9216 53.377 15.0236 54.6244C13.1251 55.8718 10.6673 55.8718 8.76926 54.6244C6.87076 53.377 5.8958 51.1207 6.28782 48.883H10.2614C10.0908 49.1708 10.0005 49.4984 9.99816 49.832Z" fill="#734730"/>
<path d="M52.2292 46.036H54.0921C55.7904 47.9261 56.0309 50.7125 54.6819 52.8654C53.3326 55.0183 50.7205 56.0169 48.2793 55.313C45.8377 54.6091 44.1584 52.3728 44.1626 49.832C44.1654 49.4984 44.1969 49.1657 44.2576 48.8376C45.5968 48.7371 46.8799 48.2593 47.9587 47.4595C49.1908 46.5355 50.6894 46.036 52.2292 46.036Z" fill="#734730"/>
<path d="M51.7549 49.832C51.7549 50.8807 50.905 51.7301 49.8568 51.7301C48.8086 51.7301 47.9587 50.8807 47.9587 49.832C47.9587 48.7839 48.8086 47.934 49.8568 47.934C50.905 47.934 51.7549 48.7839 51.7549 49.832Z" fill="#DEDEDE"/>
<path d="M42.2647 23.2596H45.1118L47.0098 19.4635H42.2647C41.2166 19.4635 40.3667 20.3133 40.3667 21.3615C40.3667 22.4102 41.2166 23.2596 42.2647 23.2596Z" fill="#F05D46"/>
<path d="M11.8961 51.73C11.2168 51.7342 10.5875 51.3728 10.2487 50.7834C9.91046 50.1939 9.9151 49.4683 10.2612 48.883H13.5314C13.8775 49.4683 13.8822 50.1939 13.5434 50.7834C13.2051 51.3728 12.5759 51.7342 11.8961 51.73Z" fill="#DEDEDE"/>
<path d="M1.45679 46.6208C1.45679 40.3419 8.09991 37.4949 8.09991 37.4949V33.6988H28.9783C28.9783 36.5458 27.0803 36.5458 27.0803 36.5458H26.6057C24.2471 36.5458 22.3352 38.4582 22.3352 40.8164C22.3352 43.1751 24.2471 45.087 26.6057 45.087H36.4175C37.0992 45.0875 37.7284 44.7223 38.0662 44.1306L41.3155 38.4439L40.3665 28.0047C40.209 25.678 41.8577 23.6169 44.1626 23.2596L45.6519 35.0398C45.9003 36.5305 47.0092 37.7321 48.4749 38.0987L49.8567 38.4439V41.2909H47.9586C44.8141 41.2909 42.2645 43.8405 42.2645 46.985V48.8831H1.45679V46.6208Z" fill="#F05D46"/>
<path d="M47.9588 41.2909H51.7548C54.3757 41.2909 56.4999 43.4155 56.4999 46.036H52.2293C50.6895 46.036 49.1909 46.5355 47.9588 47.4595C46.88 48.2593 45.5969 48.7371 44.2577 48.8376C44.0677 48.8529 43.8782 48.883 43.6882 48.883H42.2646V46.985C42.2646 43.8404 44.8142 41.2909 47.9588 41.2909Z" fill="#F05D46"/>
<path d="M43.2137 48.883H41.3157V46.985C41.3198 43.3182 44.2915 40.346 47.9588 40.3419H49.8568V42.2399H47.9588C45.3397 42.2431 43.217 44.3659 43.2137 46.985V48.883Z" fill="#D64D37"/>
<path d="M28.9785 33.6987H18.5393V31.8007C18.5393 30.7525 19.3892 29.9027 20.4373 29.9027H27.0805C28.1286 29.9027 28.9785 30.7525 28.9785 31.8007V33.6987Z" fill="#734730"/>
<path d="M40.3666 48.883C39.8087 51.1143 37.8045 52.6791 35.5048 52.6791H25.2991C22.9998 52.6791 20.9952 51.1143 20.4373 48.883H40.3666Z" fill="#DEDEDE"/>
<path d="M36.5706 20.4125V22.3106H41.3156C41.8397 22.3106 42.2647 21.8861 42.2647 21.3616C42.2647 20.8375 41.8397 20.4125 41.3156 20.4125H36.5706Z" fill="#8C563B"/>
<path d="M14.7432 34.6478H8.1001C8.01205 34.6483 7.92401 34.6358 7.83921 34.6112L1.98107 32.9398C1.00286 32.6645 0.378673 31.7094 0.519543 30.703C0.660413 29.6969 1.52324 28.95 2.53899 28.9537H14.7432C15.2673 28.9537 15.6922 29.3786 15.6922 29.9027V33.6988C15.6922 34.2234 15.2673 34.6478 14.7432 34.6478ZM8.23309 32.7498H13.7942V30.8517H2.53899C2.47226 30.8512 2.41572 30.9004 2.40646 30.9666C2.39719 31.0324 2.43843 31.0955 2.50284 31.1131L8.23309 32.7498Z" fill="#DEDEDE"/>
<path d="M3.35482 17.5655H13.794C14.8422 17.5655 15.692 18.4153 15.692 19.4635V28.9537H1.45679V19.4635C1.45679 18.4153 2.30664 17.5655 3.35482 17.5655Z" fill="#F05D46"/>
<path d="M1.45679 20.4125H15.692V22.3106H1.45679V20.4125Z" fill="#D64D37"/>
<path d="M18.5393 26.1066C18.5393 28.2034 20.239 29.9026 22.3354 29.9026H32.7746L28.9785 41.2908H32.7746L36.9163 30.5236C37.2944 29.5389 37.1716 28.4319 36.5869 27.5542C35.984 26.6497 34.9692 26.1066 33.8821 26.1066H18.5393Z" fill="#8C563B"/>
<path d="M36.5705 45.0869H28.0293L28.9783 41.2909H32.7744C34.8712 41.2909 36.5705 42.9906 36.5705 45.0869Z" fill="#DEDEDE"/>
<path d="M18.5393 11.8714H26.1314V26.1066H18.5393V11.8714Z" fill="#D64D37"/>
<path d="M26.1315 4.2792H18.5393V11.8713H26.1315V8.07527H28.0295L26.1315 5.22822V4.2792Z" fill="#FEC9A3"/>
<path d="M25.1824 18.5144L23.7199 13.615C23.4118 12.3815 22.1615 11.6317 20.9285 11.9403C19.6954 12.249 18.9456 13.4987 19.2538 14.7318L20.8474 20.1544C21.1643 21.4217 22.3029 22.3105 23.6092 22.3105H34.6726V18.5144H25.1824Z" fill="#F05D46"/>
<path d="M36.5707 18.5145H34.6726V22.3105H36.5707C37.6189 22.3105 38.4687 21.4612 38.4687 20.4125C38.4687 19.3643 37.6189 18.5145 36.5707 18.5145Z" fill="#FEC9A3"/>
<path d="M15.6922 1.43214H13.6158C13.1093 1.43214 12.6093 1.5503 12.1561 1.7769C11.3823 2.16383 10.4861 2.22777 9.66495 1.95437L8.1001 1.43214V7.12624L9.66495 7.64848C10.4861 7.92188 11.3823 7.85793 12.1561 7.471C12.6093 7.2444 13.1093 7.12624 13.6158 7.12624H15.6922V1.43214Z" fill="#F05D46"/>
<path d="M8.10011 37.4948H2.40601V42.7344C3.71739 40.4415 5.70625 38.6111 8.10011 37.4948Z" fill="#C44639"/>
<path d="M17.5901 36.5458H7.15092C6.62683 36.5458 6.2019 36.9707 6.2019 37.4948C6.2019 38.0193 6.62683 38.4438 7.15092 38.4438H17.5901C18.1142 38.4438 18.5391 38.0193 18.5391 37.4948C18.5391 36.9707 18.1142 36.5458 17.5901 36.5458Z" fill="#D64D37"/>
<path d="M12.845 40.3419H18.5391V42.2399H12.845V40.3419Z" fill="#D64D37"/>
<path d="M12.845 44.1379H18.5391V46.036H12.845V44.1379Z" fill="#D64D37"/>
<path d="M25.9975 3.33015C25.5235 1.47938 23.745 0.271797 21.8498 0.512758C19.9545 0.75372 18.5351 2.36863 18.5393 4.27917V5.22819H29.9275V3.33015H25.9975Z" fill="#F05D46"/>
</g>
</g>
<defs>
<clipPath id="clip0">
<rect width="56" height="56" fill="white" transform="translate(0.5)"/>
</clipPath>
<clipPath id="clip1">
<rect width="56" height="56" fill="white" transform="translate(0.5)"/>
</clipPath>
</defs>
</svg>
