<svg width="25" height="25" viewBox="0 0 25 25" fill="none" xmlns="http://www.w3.org/2000/svg">
<mask id="mask0" mask-type="alpha" maskUnits="userSpaceOnUse" x="3" y="3" width="19" height="19">
<path d="M10.2041 13.9002C10.2041 13.6747 10.0212 13.4921 9.79549 13.4921H8.36977C8.14436 13.4921 7.96143 13.6747 7.96143 13.9002V15.3258C7.96143 15.5515 8.14436 15.7343 8.36977 15.7343H9.79549C10.0212 15.7343 10.2041 15.5515 10.2041 15.3258V13.9002Z" fill="black"/>
<path d="M13.767 13.9002C13.767 13.6747 13.5841 13.4921 13.3589 13.4921H11.933C11.7076 13.4921 11.5247 13.6747 11.5247 13.9002V15.3258C11.5247 15.5515 11.7076 15.7343 11.933 15.7343H13.3589C13.5841 15.7343 13.767 15.5515 13.767 15.3258V13.9002Z" fill="black"/>
<path d="M17.3304 13.9002C17.3304 13.6747 17.1475 13.4921 16.9221 13.4921H15.4963C15.2707 13.4921 15.0878 13.6747 15.0878 13.9002V15.3258C15.0878 15.5515 15.2707 15.7343 15.4963 15.7343H16.9221C17.1475 15.7343 17.3304 15.5515 17.3304 15.3258V13.9002Z" fill="black"/>
<path d="M10.2041 17.4637C10.2041 17.2378 10.0212 17.0553 9.79549 17.0553H8.36977C8.14436 17.0553 7.96143 17.2378 7.96143 17.4637V18.889C7.96143 19.1146 8.14436 19.2973 8.36977 19.2973H9.79549C10.0212 19.2973 10.2041 19.1146 10.2041 18.889V17.4637Z" fill="black"/>
<path d="M13.767 17.4637C13.767 17.2378 13.5841 17.0553 13.3589 17.0553H11.933C11.7076 17.0553 11.5247 17.2378 11.5247 17.4637V18.889C11.5247 19.1146 11.7076 19.2973 11.933 19.2973H13.3589C13.5841 19.2973 13.767 19.1146 13.767 18.889V17.4637Z" fill="black"/>
<path d="M17.3304 17.4637C17.3304 17.2378 17.1475 17.0553 16.9222 17.0553H15.4963C15.2707 17.0553 15.0878 17.2378 15.0878 17.4637V18.889C15.0878 19.1146 15.2707 19.2973 15.4963 19.2973H16.9222C17.1475 19.2973 17.3304 19.1146 17.3304 18.889V17.4637Z" fill="black"/>
<path d="M19.8798 5.974V8.1514C19.8798 9.13557 19.0814 9.92865 18.0974 9.92865H16.973C15.9889 9.92865 15.1799 9.13557 15.1799 8.1514V5.96619H10.112V8.1514C10.112 9.13557 9.30303 9.92865 8.31909 9.92865H7.19448C6.21051 9.92865 5.41215 9.13557 5.41215 8.1514V5.974C4.55214 5.99993 3.84546 6.71155 3.84546 7.58624V20.3468C3.84546 21.238 4.56774 21.9698 5.45887 21.9698H19.833C20.7228 21.9698 21.4464 21.2364 21.4464 20.3468V7.58624C21.4464 6.71155 20.7398 5.99993 19.8798 5.974ZM19.3575 19.5522C19.3575 19.9373 19.0453 20.2497 18.66 20.2497H6.60115C6.21589 20.2497 5.90364 19.9373 5.90364 19.5522V12.9609C5.90364 12.5756 6.21585 12.2632 6.60115 12.2632H18.66C19.0452 12.2632 19.3575 12.5756 19.3575 12.9609L19.3575 19.5522Z" fill="black"/>
<path d="M7.19052 8.76129H8.3027C8.64028 8.76129 8.914 8.48798 8.914 8.1504V4.58084C8.914 4.24322 8.64028 3.96973 8.3027 3.96973H7.19052C6.8529 3.96973 6.57922 4.24322 6.57922 4.58084V8.1504C6.57922 8.48798 6.8529 8.76129 7.19052 8.76129Z" fill="black"/>
<path d="M16.9587 8.76129H18.0709C18.4082 8.76129 18.6819 8.48798 18.6819 8.1504V4.58084C18.682 4.24322 18.4082 3.96973 18.0709 3.96973H16.9587C16.6211 3.96973 16.3474 4.24322 16.3474 4.58084V8.1504C16.3474 8.48798 16.6211 8.76129 16.9587 8.76129Z" fill="black"/>
</mask>
<g mask="url(#mask0)">
<rect x="0.645996" y="0.969727" width="24" height="24" fill="url(#paint0_linear)"/>
</g>
<defs>
<linearGradient id="paint0_linear" x1="12.646" y1="0.969727" x2="12.646" y2="35.7697" gradientUnits="userSpaceOnUse">
<stop stop-color="#00C9E8"/>
<stop offset="1" stop-color="#0099CC"/>
</linearGradient>
</defs>
</svg>
